# xmcd
#
# Track frame offsets: 
#        150
#        20752
#        34708
#        52713
#        68301
#        86417
#        118800
#        141014
#        187860
#        200910
#        231257
#        247312
#
# Disc length: 3743 seconds
#
# Revision: 4
# Processed by: cddbd v1.5.2PL0 Copyright (c) Steve Scherf et al.
# Submitted via: ExactAudioCopy v1.0b4
#
DISCID=a10e9d0c
DTITLE=Various Artist - White Boys Blues CD 2
DYEAR=1999
DGENRE=Blues
TTITLE0=Alex Conti - Alex Conti - Drifting
TTITLE1=Toni McPhee - Toni McPhee - Drop Down Mama
TTITLE2=Savoy Brown - Savoy Brown - Baby Please
TTITLE3=Abbi Wallenstein - Abbi Wallenstein - Blues Harp Boogie
TTITLE4=Peter Green/Nigel Watson - Peter Green+Nigel Watson - Travelin
TTITLE4=g Riverside Blues
TTITLE5=Snowy White - Snowy White - Looking For Somebody
TTITLE6=Bobby Murray - Bobby Murray - The Future Is Now
TTITLE7=Big Jim Sullivan/Maggie Bell - Big Jim Sullivan+Maggie Bell - 
TTITLE7=Blind Man
TTITLE8=Mitch Woods - Mitch Woods - Rocket 88
TTITLE9=Rory Gallagher - Rory Gallagher - Leavin Town Blues
TTITLE10=Rory Gallagher - Rory Gallagher - Send For Me
TTITLE11=Alvin Lee - Alvin Lee - The Bluest Blues
EXTD=
EXTT0=
EXTT1=
EXTT2=
EXTT3=
EXTT4=
EXTT5=
EXTT6=
EXTT7=
EXTT8=
EXTT9=
EXTT10=
EXTT11=
PLAYORDER=
